# Blender v2.82 (sub 7) OBJ File: ''
# www.blender.org
mtllib obj2.mtl
o Cube.002_Cube.004
v -1.000000 0.466562 1.000000
v -1.000000 0.466562 -0.033277
v 1.000000 0.466562 1.000000
v 1.000000 0.466562 -0.033277
v 0.000000 0.466562 -1.000000
v 0.000000 0.466562 0.335048
v -0.500000 0.466562 -0.762515
v -0.500000 0.466562 0.497985
v 0.500000 0.466562 0.497985
v 0.500000 0.466562 -0.762515
v 0.250000 0.466562 -1.000000
v 0.250000 0.466562 0.335048
v -0.250000 0.466562 0.335048
v -0.250000 0.466562 -1.000000
v -0.750000 0.466562 -0.496672
v -0.750000 0.466562 0.690257
v 0.750000 0.466562 0.690257
v 0.750000 0.466562 -0.496672
v -0.605081 1.224250 0.370063
v -1.000000 0.903951 1.000000
v -0.605081 1.224250 -0.033174
v -1.000000 0.903951 -0.033277
v 0.605081 1.224250 0.370063
v 1.000000 0.903951 1.000000
v 0.605081 1.224250 -0.033174
v 1.000000 0.903951 -0.033277
v -0.064293 1.224250 -0.522760
v 0.064293 1.224250 -0.522760
v 0.000000 0.903951 -1.000000
v 0.064293 1.224250 0.102508
v -0.064293 1.224250 0.102508
v 0.000000 0.903951 0.335048
v -0.270394 1.224250 0.147225
v -0.398980 1.224250 0.218315
v -0.500000 0.903951 0.497985
v -0.398980 1.224250 -0.312809
v -0.270394 1.224250 -0.422826
v -0.500000 0.903951 -0.762515
v 0.270394 1.224250 -0.422826
v 0.398980 1.224250 -0.312809
v 0.500000 0.903951 -0.762515
v 0.398980 1.224250 0.218315
v 0.270394 1.224250 0.147225
v 0.500000 0.903951 0.497985
v 0.103051 1.224250 0.102508
v 0.250000 0.903951 0.335048
v 0.231636 1.224250 0.126580
v 0.231636 1.224250 -0.452917
v 0.250000 0.903951 -1.000000
v 0.103051 1.224250 -0.522760
v -0.250000 0.903951 -1.000000
v -0.231636 1.224250 -0.452917
v -0.103051 1.224250 -0.522760
v -0.231636 1.224250 0.126580
v -0.250000 0.903951 0.335048
v -0.103051 1.224250 0.102508
v -0.750000 0.903951 0.690257
v -0.437737 1.224250 0.242677
v -0.566323 1.224250 0.330817
v -0.437737 1.224250 -0.279126
v -0.750000 0.903951 -0.496672
v -0.566323 1.224250 -0.091888
v 0.750000 0.903951 -0.496672
v 0.437737 1.224250 -0.279126
v 0.566323 1.224250 -0.091888
v 0.750000 0.903951 0.690257
v 0.566323 1.224250 0.330817
v 0.437737 1.224250 0.242677
vt 0.855756 0.543034
vt 0.862994 0.543702
vt 0.862994 0.713564
vt 0.855756 0.714163
vt 0.762006 0.517986
vt 0.769244 0.517986
vt 0.769244 0.732014
vt 0.762006 0.732014
vt 0.375000 0.750000
vt 0.607458 0.750000
vt 0.607458 0.781250
vt 0.375000 0.781250
vt 0.375000 0.000000
vt 0.607458 0.000000
vt 0.607458 0.250000
vt 0.375000 0.250000
vt 0.343750 0.500000
vt 0.375000 0.500000
vt 0.343750 0.750000
vt 0.607458 0.281250
vt 0.375000 0.281250
vt 0.375000 0.343750
vt 0.607458 0.343750
vt 0.607458 0.375000
vt 0.375000 0.375000
vt 0.218750 0.500000
vt 0.250000 0.500000
vt 0.250000 0.750000
vt 0.218750 0.750000
vt 0.375000 0.875000
vt 0.607458 0.875000
vt 0.607458 0.906250
vt 0.375000 0.906250
vt 0.607458 0.406250
vt 0.375000 0.406250
vt 0.375000 0.312500
vt 0.607458 0.312500
vt 0.156250 0.500000
vt 0.187500 0.500000
vt 0.187500 0.750000
vt 0.156250 0.750000
vt 0.824506 0.528045
vt 0.831744 0.528267
vt 0.831744 0.724760
vt 0.824506 0.724968
vt 0.375000 0.937500
vt 0.607458 0.937500
vt 0.607458 0.968750
vt 0.375000 0.968750
vt 0.375000 0.812500
vt 0.607458 0.812500
vt 0.607458 0.843750
vt 0.375000 0.843750
vt 0.607458 0.437500
vt 0.375000 0.437500
vt 0.281250 0.500000
vt 0.312500 0.500000
vt 0.312500 0.750000
vt 0.281250 0.750000
vt 0.607458 0.468750
vt 0.375000 0.468750
vt 0.668256 0.528267
vt 0.675494 0.528045
vt 0.675494 0.724968
vt 0.668256 0.724760
vt 0.607458 0.906250
vt 0.730756 0.517986
vt 0.737994 0.517986
vt 0.737994 0.732014
vt 0.730756 0.732014
vt 0.699506 0.525229
vt 0.706744 0.525035
vt 0.706744 0.727715
vt 0.699506 0.727534
vt 0.125000 0.500000
vt 0.125000 0.750000
vt 0.637006 0.543702
vt 0.644244 0.543034
vt 0.644244 0.714163
vt 0.637006 0.713564
vt 0.793256 0.525035
vt 0.800494 0.525229
vt 0.800494 0.727534
vt 0.793256 0.727715
vt 0.607458 0.500000
vt 0.750000 0.517986
vt 0.750000 0.500000
vt 0.750000 0.732014
vt 0.750000 0.750000
vt 0.812500 0.740619
vt 0.812500 0.750000
vt 0.812500 0.508179
vt 0.812500 0.500000
vt 0.687500 0.548064
vt 0.687500 0.500000
vt 0.687500 0.714846
vt 0.687500 0.750000
vt 0.718750 0.750000
vt 0.718750 0.740254
vt 0.718750 0.500000
vt 0.718750 0.517986
vt 0.625000 0.323475
vt 0.625000 0.343750
vt 0.781250 0.750000
vt 0.781250 0.732014
vt 0.625000 0.949424
vt 0.625000 0.968750
vt 0.843750 0.500000
vt 0.843750 0.580107
vt 0.625000 0.465490
vt 0.625000 0.468750
vt 0.625000 0.778587
vt 0.625000 0.781250
vt 0.875000 0.500000
vt 0.875000 0.750000
vt 0.625000 0.500000
vt 0.656250 0.500000
vt 0.843750 0.750000
vt 0.781250 0.500000
vt 0.656250 0.750000
vt 0.625000 0.750000
vt 0.607458 1.000000
vt 0.375000 1.000000
vn 0.0000 1.0000 0.0000
vn -0.7782 0.0000 0.6281
vn -1.0000 0.0000 0.0000
vn 0.0000 -1.0000 0.0000
vn -0.8801 0.0000 -0.4748
vn 0.0000 0.0000 -1.0000
vn 0.0000 0.0000 1.0000
vn -0.6887 0.0000 -0.7250
vn 0.6096 0.0000 0.7927
vn -0.5460 0.0000 0.8378
vn 0.6887 0.0000 -0.7250
vn 0.7285 0.0000 -0.6851
vn 0.5460 0.0000 0.8378
vn -0.7285 0.0000 -0.6851
vn 1.0000 0.0000 0.0000
vn 0.8801 0.0000 -0.4748
vn -0.6096 0.0000 0.7927
vn 0.0000 0.8303 -0.5573
vn 0.0000 0.5875 0.8092
vn 0.4128 0.5217 0.7466
vn -0.4018 0.7861 -0.4696
vn 0.4018 0.7861 -0.4696
vn -0.4128 0.5217 0.7466
vn -0.1557 0.5325 0.8319
vn 0.2613 0.8368 -0.4811
vn -0.2613 0.8368 -0.4811
vn 0.1557 0.5325 0.8319
vn 0.4845 0.5154 0.7068
vn -0.5308 0.7651 -0.3645
vn 0.5308 0.7651 -0.3645
vn -0.4845 0.5154 0.7068
vn -0.6299 0.7767 0.0000
vn 0.5897 0.7388 -0.3262
vn 0.6299 0.7767 0.0000
vn 0.7402 0.2774 0.6125
vn 0.4742 0.4676 0.7459
vn -0.4638 0.7649 -0.4471
vn 0.4188 0.7877 -0.4519
vn -0.5322 0.4620 0.7094
vn -0.4742 0.4676 0.7459
vn -0.4188 0.7877 -0.4519
vn 0.5322 0.4620 0.7094
vn -0.5897 0.7388 -0.3262
vn 0.4638 0.7649 -0.4471
vn -0.7402 0.2774 0.6125
vn 0.7782 0.0000 0.6281
usemtl None
s off
f 62/1/1 21/2/1 19/3/1 59/4/1
f 27/5/1 53/6/1 56/7/1 31/8/1
f 3/9/2 24/10/2 66/11/2 17/12/2
f 1/13/3 20/14/3 22/15/3 2/16/3
f 18/17/4 4/18/4 3/9/4 17/19/4
f 2/16/5 22/15/5 61/20/5 15/21/5
f 14/22/6 51/23/6 29/24/6 5/25/6
f 14/26/4 5/27/4 6/28/4 13/29/4
f 6/30/7 32/31/7 55/32/7 13/33/7
f 5/25/6 29/24/6 49/34/6 11/35/6
f 7/36/8 38/37/8 51/23/8 14/22/8
f 15/38/4 7/39/4 8/40/4 16/41/4
f 36/42/1 60/43/1 58/44/1 34/45/1
f 8/46/9 35/47/9 57/48/9 16/49/9
f 9/50/10 44/51/10 46/52/10 12/53/10
f 11/35/11 49/34/11 41/54/11 10/55/11
f 11/56/4 10/57/4 9/58/4 12/59/4
f 10/55/12 41/54/12 63/60/12 18/61/12
f 12/53/7 46/52/7 32/31/7 6/30/7
f 5/27/4 11/56/4 12/59/4 6/28/4
f 64/62/1 40/63/1 42/64/1 68/65/1
f 13/33/13 55/66/13 35/47/13 8/46/13
f 50/67/1 28/68/1 30/69/1 45/70/1
f 39/71/1 48/72/1 47/73/1 43/74/1
f 7/39/4 14/26/4 13/29/4 8/40/4
f 2/75/4 15/38/4 16/41/4 1/76/4
f 25/77/1 65/78/1 67/79/1 23/80/1
f 15/21/14 61/20/14 38/37/14 7/36/14
f 52/81/1 37/82/1 33/83/1 54/84/1
f 4/18/15 26/85/15 24/10/15 3/9/15
f 18/61/16 63/60/16 26/85/16 4/18/16
f 10/57/4 18/17/4 17/19/4 9/58/4
f 17/12/17 66/11/17 44/51/17 9/50/17
f 27/5/18 28/86/18 29/87/18
f 30/69/19 31/88/19 32/89/19
f 33/83/20 34/90/20 35/91/20
f 36/42/21 37/92/21 38/93/21
f 39/71/22 40/94/22 41/95/22
f 42/64/23 43/96/23 44/97/23
f 45/70/24 46/98/24 47/99/24
f 48/72/25 49/100/25 50/101/25
f 51/23/26 52/102/26 53/103/26
f 54/84/27 55/104/27 56/105/27
f 57/48/28 58/106/28 59/107/28
f 60/43/29 61/108/29 62/109/29
f 63/60/30 64/110/30 65/111/30
f 66/11/31 67/112/31 68/113/31
f 19/3/32 21/2/32 22/114/32 20/115/32
f 65/78/33 25/77/33 26/116/33 63/117/33
f 25/77/34 23/80/34 24/10/34 26/85/34
f 59/4/35 19/3/35 20/115/35 57/118/35
f 53/6/18 27/5/18 29/87/18 51/119/18
f 45/70/19 30/69/19 32/89/19 46/98/19
f 27/5/1 31/8/1 30/69/1 28/68/1
f 54/84/36 33/83/36 35/91/36 55/104/36
f 60/43/37 36/42/37 38/93/37 61/108/37
f 36/42/1 34/45/1 33/83/1 37/82/1
f 48/72/38 39/71/38 41/95/38 49/100/38
f 68/65/39 42/64/39 44/97/39 66/120/39
f 39/71/1 43/74/1 42/64/1 40/63/1
f 43/74/40 47/73/40 46/98/40 44/97/40
f 28/68/18 50/67/18 49/100/18 29/87/18
f 50/67/1 45/70/1 47/73/1 48/72/1
f 37/82/41 52/81/41 51/119/41 38/93/41
f 31/8/19 56/7/19 55/104/19 32/89/19
f 52/81/1 54/84/1 56/7/1 53/6/1
f 34/45/42 58/44/42 57/118/42 35/91/42
f 21/2/43 62/1/43 61/108/43 22/114/43
f 62/1/1 59/4/1 58/44/1 60/43/1
f 40/63/44 64/62/44 63/117/44 41/95/44
f 23/80/45 67/79/45 66/120/45 24/121/45
f 64/62/1 68/65/1 67/79/1 65/78/1
f 16/49/46 57/48/46 20/122/46 1/123/46
